HIERARCHY
ROOT hip
{
	OFFSET 0.000000 0.000000 0.000000 
	CHANNELS 6 Xposition Yposition Zposition Xrotation Zrotation Yrotation
	JOINT abdomen
	{
		OFFSET 0.000000 3.402643 0.000000 
		CHANNELS 3 Xrotation Zrotation Yrotation
		JOINT chest
		{
			OFFSET 0.000000 8.438565 -0.680529 
			CHANNELS 3 Xrotation Zrotation Yrotation
			JOINT neck
			{
				OFFSET 0.000000 10.207942 -0.272212 
				CHANNELS 3 Xrotation Zrotation Yrotation
				JOINT head
				{
					OFFSET 0.000000 3.130431 0.000000 
					CHANNELS 3 Xrotation Zrotation Yrotation
					End Site
					{
						OFFSET 0.000000 3.130435 0.000000 
					}
				}
			}
			JOINT lCollar
			{
				OFFSET 3.470700 6.669187 -0.816635 
				CHANNELS 3 Yrotation Zrotation Xrotation
				JOINT lShldr
				{
					OFFSET 3.198488 0.000000 0.000000 
					CHANNELS 3 Zrotation Yrotation Xrotation
					JOINT lForeArm
					{
						OFFSET 10.139888 0.000000 0.000000 
						CHANNELS 3 Yrotation Zrotation Xrotation
						JOINT lHand
						{
							OFFSET 8.370511 0.000000 0.000000 
							CHANNELS 3 Zrotation Yrotation Xrotation
							End Site
							{
								OFFSET 4.083176 0.000000 0.000000 
							}
						}
					}
				}
			}
			JOINT rCollar
			{
				OFFSET -3.470700 6.669187 -0.816635 
				CHANNELS 3 Yrotation Zrotation Xrotation
				JOINT rShldr
				{
					OFFSET -3.198488 0.000000 0.000000 
					CHANNELS 3 Zrotation Yrotation Xrotation
					JOINT rForeArm
					{
						OFFSET -10.139888 0.000000 0.000000 
						CHANNELS 3 Yrotation Zrotation Xrotation
						JOINT rHand
						{
							OFFSET -8.370511 0.000000 0.000000 
							CHANNELS 3 Zrotation Yrotation Xrotation
							End Site
							{
								OFFSET -4.083176 0.000000 0.000000 
							}
						}
					}
				}
			}
		}
	}
	JOINT lThigh
	{
		OFFSET 5.308129 -1.633274 1.361059 
		CHANNELS 3 Xrotation Zrotation Yrotation
		JOINT lShin
		{
			OFFSET -2.041588 -20.007561 0.000000 
			CHANNELS 3 Xrotation Zrotation Yrotation
			JOINT lFoot
			{
				OFFSET 0.000000 -19.190928 -1.224953 
				CHANNELS 3 Xrotation Yrotation Zrotation
				End Site
				{
					OFFSET 0.000000 -2.449906 4.627600 
				}
			}
		}
	}
	JOINT rThigh
	{
		OFFSET -5.308129 -1.633274 1.361059 
		CHANNELS 3 Xrotation Zrotation Yrotation
		JOINT rShin
		{
			OFFSET 2.041588 -20.007561 0.000000 
			CHANNELS 3 Xrotation Zrotation Yrotation
			JOINT rFoot
			{
				OFFSET 0.000000 -19.190928 -1.224953 
				CHANNELS 3 Xrotation Yrotation Zrotation
				End Site
				{
					OFFSET 0.000000 -2.449906 4.627600 
				}
			}
		}
	}
}
MOTION
Frames: 14
Frame Time: 0.011111
-76.269356 52.748867 10.589028 -1.010980 -5.790140 -164.173370 37.119644 -0.436177 -14.943156 -23.961897 7.552824 -3.986912 -4.436649 -9.556881 -11.724565 19.291132 24.834080 -19.036674 2.971642 -4.490881 1.927035 -67.727005 -28.508770 14.053824 -63.981796 9.454655 14.211065 8.524705 12.647240 -43.782604 -4.704987 0.510038 2.448925 24.791264 38.727402 -30.717863 87.003716 -2.661185 32.423363 -8.534408 -12.637552 67.230324 6.152209 0.517910 10.479312 13.873197 -5.945053 -2.651321 -16.115908 -14.443864 -7.682323 -46.110096 -8.271093 4.439556 91.097343 -1.376197 9.714016 -16.482325 21.187456 10.315866 
-76.377144 52.811722 10.346726 -1.022139 -6.006959 -164.432220 37.884365 -0.605213 -14.344041 -21.622057 7.100097 -3.730924 -8.097540 -8.807651 -11.748310 19.440205 24.812874 -19.947775 2.971642 -4.490881 1.927035 -66.978844 -32.668072 15.409709 -63.522625 9.444954 13.992228 8.524705 12.647240 -44.358776 -4.704987 0.510038 2.448925 24.853592 40.309689 -33.555473 86.975555 -2.615872 32.376518 -8.534408 -12.637552 66.995956 6.537991 0.176687 10.077713 13.938616 -5.967908 -2.640434 -16.585579 -13.953200 -7.571460 -46.735638 -8.476244 4.157187 89.891815 -1.210954 9.709896 -15.453861 21.501127 10.118087 
-76.402298 52.820518 9.948231 -0.871387 -5.598772 -162.637756 36.892159 0.529959 -16.059536 -22.062963 7.857310 -4.321014 -6.004706 -9.452691 -11.691339 19.245102 24.993839 -19.432081 2.971642 -4.490881 1.927035 -67.380371 -31.799210 15.070418 -62.680904 9.423945 13.611740 8.524705 12.647240 -45.931046 -4.704987 0.510038 2.448925 24.373405 39.419064 -32.263496 86.985107 -2.633911 32.385429 -8.534408 -12.637552 67.464699 6.755116 1.005999 10.307650 14.172969 -5.936177 -2.707020 -16.112755 -15.813129 -8.179186 -45.920673 -9.256520 1.625986 88.512016 -1.015216 9.689779 -15.706751 20.852171 9.924754 
-76.566963 52.628502 9.793297 -0.803170 -5.323857 -164.377274 37.548031 0.540886 -14.886075 -23.106667 7.821787 -4.094134 -6.484201 -9.714960 -11.696927 19.797911 24.902903 -19.471031 2.971642 -4.490881 1.927035 -67.528381 -31.746954 16.862020 -63.096066 9.434660 13.797404 8.524705 12.647240 -44.280651 -4.704987 0.510038 2.448925 23.931728 39.075230 -32.378956 86.969467 -2.606951 32.366974 -8.534408 -12.637552 67.786972 6.796965 1.005943 10.877040 14.632994 -5.948980 -2.740229 -16.983158 -14.734445 -7.956576 -46.738369 -8.348310 1.590785 87.181770 -0.819686 9.645807 -14.998489 20.649729 9.615433 
-76.679794 52.550877 9.526794 -0.786639 -5.123889 -165.085052 37.359921 0.531796 -14.420415 -21.533030 7.665448 -3.906313 -7.321190 -9.492958 -11.725027 18.867483 25.231142 -19.970592 2.971642 -4.490881 1.927035 -67.167732 -33.562542 18.037771 -63.097507 9.439078 13.805995 8.524705 12.647240 -43.938854 -4.704987 0.510038 2.448925 23.831482 39.943890 -33.708672 86.952072 -2.579876 32.338806 -8.534408 -12.637552 68.070168 6.586233 1.171764 11.018473 15.708879 -5.899302 -2.899927 -18.124668 -14.190602 -7.986875 -46.770653 -7.987068 0.891685 85.568459 -0.594636 9.614756 -14.898789 20.266481 9.448339 
-76.767784 52.514420 9.179839 -0.786067 -5.491079 -164.796844 37.682396 0.317922 -14.702231 -20.579273 7.647655 -3.924182 -8.068437 -9.236918 -11.988635 18.261250 25.927286 -20.700645 2.971642 -4.490881 1.927035 -66.679398 -35.713081 18.972420 -62.489174 9.417632 13.525416 8.524705 12.647240 -44.983776 -4.704987 0.510038 2.448925 23.850359 40.158836 -34.859844 86.950890 -2.579594 32.329060 -8.534408 -12.637552 68.519394 6.652932 0.996260 11.327553 16.839481 -5.900826 -3.051316 -19.269632 -14.987929 -8.539254 -46.372234 -8.749111 -0.168115 83.907791 -0.350558 9.549923 -15.007459 19.936951 9.356306 
-76.979294 52.367027 9.022705 -1.040709 -5.951925 -166.404083 37.134361 -0.337328 -15.145344 -22.665125 8.147104 -4.020513 -3.080530 -9.600512 -11.883456 15.513357 26.021202 -19.952799 2.971642 -4.490881 1.927035 -67.357170 -33.548435 18.585867 -62.467720 9.416296 13.514165 8.524705 12.647240 -46.009167 -4.704987 0.510038 2.448925 23.136251 39.090496 -32.389748 86.936394 -2.552878 32.320808 -8.534408 -12.637552 69.115097 6.611009 0.078368 11.725558 17.598902 -5.877989 -3.175693 -20.824228 -13.970757 -8.414351 -47.320389 -8.836957 0.061488 82.293983 -0.126798 9.509526 -14.003212 19.869459 9.023406 
-77.035553 52.297256 8.701205 -1.100773 -5.715688 -165.103149 37.159130 0.678537 -15.844871 -22.574768 7.978585 -4.330789 -4.899024 -9.307988 -11.770373 17.047012 25.471806 -19.831980 2.971642 -4.490881 1.927035 -67.112839 -34.618874 19.336229 -62.340374 9.412537 13.453676 8.524705 12.647240 -46.800179 -4.704987 0.510038 2.448925 23.117210 38.924362 -32.781548 86.928871 -2.543064 32.291794 -8.534408 -12.637552 69.378769 6.494955 0.596280 11.463412 18.097334 -5.861817 -3.228296 -20.945122 -14.915952 -8.856126 -46.628933 -9.687378 -2.025656 80.496567 0.136885 9.432652 -14.487793 19.043356 8.877136 
-77.123856 52.165268 8.458589 -1.085336 -5.802095 -165.796051 37.093948 0.340771 -15.818832 -21.581394 8.235772 -4.238139 -5.599982 -9.561213 -11.701885 17.026918 26.071535 -19.855585 2.971642 -4.490881 1.927035 -67.214516 -35.837738 19.868216 -62.670258 9.423024 13.601228 8.524705 12.647240 -47.268932 -4.704987 0.510038 2.448925 22.689640 39.322140 -33.429268 86.911942 -2.515762 32.263645 -8.534408 -12.637552 69.847519 6.702774 0.401214 11.307673 18.387175 -5.851566 -3.271847 -21.314869 -14.343606 -8.680769 -46.443356 -9.472277 -2.489983 78.688034 0.381137 9.357426 -14.545378 18.190525 8.600796 
-77.309586 52.070675 8.259657 -1.417956 -5.999801 -167.191818 36.667542 -0.193242 -15.547978 -22.034641 8.172452 -4.106832 -5.003257 -9.796843 -11.738915 17.474194 26.399624 -19.603882 2.971642 -4.490881 1.927035 -67.315788 -35.581425 20.476858 -62.605785 9.419934 13.575538 8.524705 12.647240 -46.448624 -4.704987 0.510038 2.448925 22.498802 38.822838 -32.870304 86.917801 -2.524798 32.273170 -8.534408 -12.637552 70.511574 6.622818 -0.262181 11.661612 18.540781 -5.849945 -3.305270 -22.252567 -13.172115 -8.286627 -46.881195 -9.072026 -2.216657 76.675285 0.673950 9.266848 -13.812990 17.382854 8.121264 
-77.441589 51.931129 7.948843 -1.362875 -6.158463 -167.575470 36.772350 -0.134646 -15.911252 -23.412121 8.074277 -4.272169 -4.012600 -9.677499 -11.813998 17.878839 25.925928 -19.385752 2.971642 -4.490881 1.927035 -67.335617 -35.864285 21.195730 -60.623501 9.315085 12.674332 8.524705 12.647240 -44.622448 -4.704987 0.510038 2.448925 22.497576 37.982952 -31.800390 86.930031 -2.543358 32.301537 -8.534408 -12.637552 71.019394 6.937151 -0.593838 13.074935 18.240978 -5.861062 -3.250203 -23.446081 -12.250581 -8.022345 -46.451363 -9.139909 -2.810528 74.738976 0.918670 9.162432 -13.494645 16.279127 7.682140 
-77.546547 51.998699 7.625459 -1.106342 -6.758128 -167.904999 36.730011 -0.869059 -15.947679 -21.375082 8.108651 -4.086435 -4.758517 -9.557735 -11.852394 16.794342 26.246891 -19.975531 2.971642 -4.490881 1.927035 -66.916603 -36.489285 23.493586 -62.243534 9.406959 13.416217 8.524705 12.647240 -43.206432 -4.704987 0.510038 2.448925 22.221336 38.713516 -33.419506 86.901436 -2.497962 32.254765 -8.534408 -12.637552 71.136574 8.594976 -1.168787 11.958732 17.970974 -5.871701 -3.218172 -23.058804 -13.677233 -8.671135 -45.281204 -9.658051 -3.411565 72.490639 1.202060 9.024740 -14.300259 14.708023 7.365862 
-77.666924 51.872677 7.287303 -0.965295 -7.751071 -168.228638 37.930935 -1.649116 -16.697165 -23.790958 8.829132 -4.337149 -5.207551 -9.675268 -11.967184 18.496664 25.406183 -19.969770 2.971642 -4.490881 1.927035 -67.372444 -35.482430 23.969002 -61.902550 9.390802 13.249599 8.524705 12.647240 -47.171272 -4.704987 0.510038 2.448925 21.621737 37.136768 -32.250042 86.924484 -2.534232 32.292435 -8.534408 -12.637552 72.005722 9.464520 -2.222605 13.132254 17.981503 -5.871850 -3.209348 -23.262531 -14.030373 -8.886464 -44.571793 -10.671597 -3.988841 70.533134 1.465169 8.911327 -14.865354 12.940049 6.894692 
-77.816505 51.820198 7.034000 -1.112622 -7.608677 -168.963150 37.384171 -1.605813 -15.849648 -20.617781 7.986251 -3.956559 -7.516009 -9.104888 -11.949084 17.506313 25.646021 -20.734257 2.971642 -4.490881 1.927035 -66.631340 -40.999519 24.203850 -62.295860 9.405760 13.432446 8.524705 12.647240 -45.774788 -4.704987 0.510038 2.448925 21.935671 38.438019 -34.731026 86.934433 -2.552182 32.301331 -8.534408 -12.637552 72.415871 9.530095 -2.274702 13.336077 18.329025 -5.838530 -3.284138 -24.007275 -13.348608 -8.684576 -44.055363 -10.476659 -4.932911 68.292091 1.748718 8.760476 -14.707895 11.519212 6.380319 
